<?xml version="1.0" encoding="UTF-8" standalone="no"?>
<!-- Created with Inkscape (http://www.inkscape.org/) -->

<svg
   width="154.6006mm"
   height="162.14838mm"
   viewBox="0 0 154.6006 162.14838"
   version="1.1"
   id="svg1"
   inkscape:version="1.3.2 (091e20ef0f, 2023-11-25, custom)"
   sodipodi:docname="logo_text.svg"
   xmlns:inkscape="http://www.inkscape.org/namespaces/inkscape"
   xmlns:sodipodi="http://sodipodi.sourceforge.net/DTD/sodipodi-0.dtd"
   xmlns="http://www.w3.org/2000/svg"
   xmlns:svg="http://www.w3.org/2000/svg">
  <sodipodi:namedview
     id="namedview1"
     pagecolor="#ffffff"
     bordercolor="#000000"
     borderopacity="0.25"
     inkscape:showpageshadow="2"
     inkscape:pageopacity="0.0"
     inkscape:pagecheckerboard="0"
     inkscape:deskcolor="#d1d1d1"
     inkscape:document-units="mm"
     inkscape:zoom="0.76099206"
     inkscape:cx="289.75335"
     inkscape:cy="298.95187"
     inkscape:window-width="1906"
     inkscape:window-height="1024"
     inkscape:window-x="0"
     inkscape:window-y="0"
     inkscape:window-maximized="1"
     inkscape:current-layer="layer1" />
  <defs
     id="defs1" />
  <g
     inkscape:label="Layer 1"
     inkscape:groupmode="layer"
     id="layer1"
     transform="translate(-22.477272,-61.407503)">
    <ellipse
       style="fill:#101233;fill-opacity:1;stroke:#000000;stroke-width:1.758;stroke-linejoin:round;stroke-miterlimit:18.1;stroke-dasharray:21.0961, 1.758;stroke-dashoffset:0;stroke-opacity:1"
       id="path401-6"
       cx="99.777611"
       cy="142.48166"
       rx="76.421265"
       ry="80.194923" />
    <path
       style="fill:#ff7400;fill-opacity:1;stroke:#000000;stroke-width:2.5;stroke-linejoin:round;stroke-miterlimit:18.1;stroke-dasharray:none;stroke-opacity:1"
       d="m 50.78165,103.63607 1.883515,9.71378 17.9939,-5.03212 13.422574,63.11206 -0.396367,6.07303 -2.923129,6.85637 -3.737274,3.82902 -6.022151,1.59424 -5.603603,-0.31194 -4.975764,-2.73017 -2.882031,-4.5073 -0.855878,-3.17162 -12.587447,3.59446 1.19837,5.08144 1.6021,2.90847 1.099171,2.79347 2.591776,3.08981 2.600435,2.08964 2.650786,1.75323 6.106329,1.85357 7.188994,-0.38596 5.975031,-1.16062 6.197366,-2.33659 5.5936,-3.48567 4.36677,-4.43404 3.585588,-5.87398 1.98244,-5.15864 0.318201,-5.58922 -0.825175,-8.08712 -1.157273,-5.4881 L 81.43167,93.487417 Z"
       id="path398-2" />
    <path
       style="fill:#ff7400;fill-opacity:1;stroke:#000000;stroke-width:2.50001;stroke-linejoin:round;stroke-miterlimit:18.1;stroke-dasharray:none;stroke-opacity:1"
       d="m 122.99792,195.13741 13.07124,-4.07747 -8.81763,-40.58797 25.05131,-9.28586 8.15288,-8.42613 2.6728,-7.84242 1.09865,-6.65985 -0.92051,-9.3924 -2.11561,-7.92913 -5.7266,-9.641333 -7.35519,-4.498236 -6.12734,-2.075678 -7.20324,0.547306 -7.12032,1.51505 -25.51452,7.575967 z"
       id="path399-9" />
    <path
       style="fill:#101233;fill-opacity:1;stroke:#000000;stroke-width:2.50001;stroke-linejoin:round;stroke-miterlimit:18.1;stroke-dasharray:none;stroke-opacity:1"
       d="m 117.67964,102.65248 7.6446,36.43963 17.24124,-5.66011 3.00328,-3.55178 4.22672,-5.77387 0.91734,-7.59502 -1.73592,-6.75687 -3.31719,-7.41377 -4.43996,-4.292976 -4.78139,-1.062546 -6.13666,0.946375 z"
       id="path400-1" />
  </g>
</svg>
