<?xml version="1.0" encoding="UTF-8" standalone="no"?>
<!-- Created with Inkscape (http://www.inkscape.org/) -->

<svg
   version="1.1"
   id="svg1"
   width="680"
   height="679"
   viewBox="0 0 680 679"
   sodipodi:docname="laptop.svg"
   inkscape:version="1.3.2 (091e20ef0f, 2023-11-25, custom)"
   xmlns:inkscape="http://www.inkscape.org/namespaces/inkscape"
   xmlns:sodipodi="http://sodipodi.sourceforge.net/DTD/sodipodi-0.dtd"
   xmlns="http://www.w3.org/2000/svg"
   xmlns:svg="http://www.w3.org/2000/svg">
  <defs
     id="defs1" />
  <sodipodi:namedview
     id="namedview1"
     pagecolor="#ffffff"
     bordercolor="#000000"
     borderopacity="0.25"
     inkscape:showpageshadow="2"
     inkscape:pageopacity="0.0"
     inkscape:pagecheckerboard="0"
     inkscape:deskcolor="#d1d1d1"
     showgrid="false"
     inkscape:zoom="5.12"
     inkscape:cx="269.33594"
     inkscape:cy="251.46484"
     inkscape:window-width="1906"
     inkscape:window-height="1024"
     inkscape:window-x="0"
     inkscape:window-y="0"
     inkscape:window-maximized="1"
     inkscape:current-layer="g1" />
  <g
     inkscape:groupmode="layer"
     inkscape:label="Image"
     id="g1">
    <path
       style="opacity:1;fill:#727272;fill-opacity:1;stroke:#000000;stroke-width:4.0252;stroke-linejoin:round;stroke-miterlimit:18.1;stroke-dasharray:none;stroke-opacity:1"
       d="M 178.90747,404.24536 287.99961,536.52046 545.51052,432.85392 433.29481,305.3928 l -6.8294,-1.14199 -1.80101,7.89692 z"
       id="path49" />
    <path
       style="opacity:0.234866;fill:#2a2a2a;stroke:#000000;stroke-width:4.02519685;stroke-linejoin:round;stroke-miterlimit:18.1;stroke-dasharray:none;fill-opacity:1;stroke-opacity:1"
       d="M 194.42382,410.9138 249.07136,477.45379 485.52413,387.06345 428.553,320.42132 Z"
       id="path1" />
    <path
       style="opacity:1;fill:#444444;fill-opacity:1;stroke:#000000;stroke-width:4.0252;stroke-linejoin:round;stroke-miterlimit:18.1;stroke-dasharray:none;stroke-opacity:1"
       d="m 206.79504,425.44264 16.8652,-8.56825 -10.16093,-12.61858 -18.17223,6.28136 z"
       id="path7" />
    <path
       style="opacity:1;fill:#444444;fill-opacity:1;stroke:#000000;stroke-width:4.0252;stroke-linejoin:round;stroke-miterlimit:18.1;stroke-dasharray:none;stroke-opacity:1"
       d="m 218.78485,440.22682 17.51951,-9.45236 -12.92818,-13.13405 -17.00245,6.98833 z"
       id="path8" />
    <path
       style="opacity:1;fill:#444444;fill-opacity:1;stroke:#000000;stroke-width:4.0252;stroke-linejoin:round;stroke-miterlimit:18.1;stroke-dasharray:none;stroke-opacity:1"
       d="m 234.98138,459.70447 -16.38963,-19.44573 19.16007,-8.72465 18.22648,18.80739 z"
       id="path9" />
    <path
       style="opacity:1;fill:#444444;fill-opacity:1;stroke:#000000;stroke-width:4.0252;stroke-linejoin:round;stroke-miterlimit:18.1;stroke-dasharray:none;stroke-opacity:1"
       d="m 235.35641,459.37253 14.25116,18.28075 21.24269,-9.23214 -15.26454,-18.90473 z"
       id="path10" />
    <path
       style="opacity:1;fill:#444444;fill-opacity:1;stroke:#000000;stroke-width:4.0252;stroke-linejoin:round;stroke-miterlimit:18.1;stroke-dasharray:none;stroke-opacity:1"
       d="m 271.43914,468.24081 19.49041,-6.46489 -14.9709,-19.41382 -20.16707,7.69212 z"
       id="path11" />
    <path
       style="opacity:1;fill:#444444;fill-opacity:1;stroke:#000000;stroke-width:4.0252;stroke-linejoin:round;stroke-miterlimit:18.1;stroke-dasharray:none;stroke-opacity:1"
       d="m 255.39421,448.96424 20.95064,-7.64105 -18.71163,-18.23925 -19.73618,7.33623 z"
       id="path12" />
    <path
       style="opacity:1;fill:#444444;fill-opacity:1;stroke:#000000;stroke-width:4.0252;stroke-linejoin:round;stroke-miterlimit:18.1;stroke-dasharray:none;stroke-opacity:1"
       d="m 238.00397,429.18018 18.15945,-6.92131 -14.71556,-12.68082 -16.53166,7.20218 z"
       id="path13" />
    <path
       style="opacity:1;fill:#444444;fill-opacity:1;stroke:#000000;stroke-width:4.0252;stroke-linejoin:round;stroke-miterlimit:18.1;stroke-dasharray:none;stroke-opacity:1"
       d="m 225.32793,416.69406 17.66474,-7.60275 -13.06064,-11.82224 -14.6597,6.75055 z"
       id="path14" />
    <path
       style="opacity:1;fill:#444444;fill-opacity:1;stroke:#000000;stroke-width:4.0252;stroke-linejoin:round;stroke-miterlimit:18.1;stroke-dasharray:none;stroke-opacity:1"
       d="m 289.97043,460.94926 21.23312,-7.10643 -16.5971,-20.38092 -18.09243,9.1316 z"
       id="path15" />
    <path
       style="opacity:1;fill:#444444;fill-opacity:1;stroke:#000000;stroke-width:4.0252;stroke-linejoin:round;stroke-miterlimit:18.1;stroke-dasharray:none;stroke-opacity:1"
       d="m 276.00813,440.22523 17.42535,-7.6618 -16.34176,-19.03559 -18.39564,9.45396 z"
       id="path16" />
    <path
       style="opacity:1;fill:#444444;fill-opacity:1;stroke:#000000;stroke-width:4.0252;stroke-linejoin:round;stroke-miterlimit:18.1;stroke-dasharray:none;stroke-opacity:1"
       d="M 257.73696,420.26722 275.515,412.56553 265.41152,399.19369 243.2129,408.0891 Z"
       id="path17" />
    <path
       style="opacity:1;fill:#444444;fill-opacity:1;stroke:#000000;stroke-width:4.0252;stroke-linejoin:round;stroke-miterlimit:18.1;stroke-dasharray:none;stroke-opacity:1"
       d="m 243.19375,406.86028 19.66916,-8.49644 -10.1354,-11.35305 -21.46452,9.57046 z"
       id="path18" />
    <path
       style="opacity:1;fill:#444444;fill-opacity:1;stroke:#000000;stroke-width:4.0252;stroke-linejoin:round;stroke-miterlimit:18.1;stroke-dasharray:none;stroke-opacity:1"
       d="m 312.61111,453.34013 113.20975,-43.7924 -19.05953,-19.16965 -110.80318,42.5556 z"
       id="path19" />
    <path
       style="opacity:1;fill:#444444;fill-opacity:1;stroke:#000000;stroke-width:4.0252;stroke-linejoin:round;stroke-miterlimit:18.1;stroke-dasharray:none;stroke-opacity:1"
       d="m 316.1332,436.73186 8.96403,12.34728 83.66692,-33.55486 -9.47311,-12.76381 z"
       id="path20" />
    <path
       style="opacity:1;fill:#444444;fill-opacity:1;stroke:#000000;stroke-width:4.0252;stroke-linejoin:round;stroke-miterlimit:18.1;stroke-dasharray:none;stroke-opacity:1"
       d="m 294.88094,432.51237 23.86311,-10.70992 -15.77043,-15.89012 -24.49348,7.54529 z"
       id="path21" />
    <path
       style="opacity:1;fill:#444444;fill-opacity:1;stroke:#000000;stroke-width:4.0252;stroke-linejoin:round;stroke-miterlimit:18.1;stroke-dasharray:none;stroke-opacity:1"
       d="m 278.59504,412.62617 22.4348,-7.48146 -12.71752,-15.03474 -21.40228,9.50025 z"
       id="path22" />
    <path
       style="opacity:1;fill:#444444;fill-opacity:1;stroke:#000000;stroke-width:4.0252;stroke-linejoin:round;stroke-miterlimit:18.1;stroke-dasharray:none;stroke-opacity:1"
       d="m 267.09038,397.62016 19.9995,-9.03425 -11.24294,-9.59759 -21.11023,7.58998 z"
       id="path23" />
    <path
       style="opacity:1;fill:#444444;fill-opacity:1;stroke:#000000;stroke-width:4.0252;stroke-linejoin:round;stroke-miterlimit:18.1;stroke-dasharray:none;stroke-opacity:1"
       d="m 317.86792,422.31632 23.37797,-7.90117 -15.15602,-16.1327 -22.17947,7.06653 z"
       id="path24" />
    <path
       style="opacity:1;fill:#444444;fill-opacity:1;stroke:#000000;stroke-width:4.0252;stroke-linejoin:round;stroke-miterlimit:18.1;stroke-dasharray:none;stroke-opacity:1"
       d="m 303.27684,404.15208 21.66719,-6.78247 -15.29646,-13.06702 -18.56002,6.90694 z"
       id="path25" />
    <path
       style="opacity:1;fill:#444444;fill-opacity:1;stroke:#000000;stroke-width:4.0252;stroke-linejoin:round;stroke-miterlimit:18.1;stroke-dasharray:none;stroke-opacity:1"
       d="m 291.13861,390.22009 16.44709,-8.22993 -11.21581,-9.54492 -17.78602,6.19997 z"
       id="path26" />
    <path
       style="opacity:1;fill:#444444;fill-opacity:1;stroke:#000000;stroke-width:4.0252;stroke-linejoin:round;stroke-miterlimit:18.1;stroke-dasharray:none;stroke-opacity:1"
       d="m 341.47569,414.41914 22.98618,-8.57544 -17.04952,-17.07266 -19.95482,7.97059 z"
       id="path27" />
    <path
       style="opacity:1;fill:#444444;fill-opacity:1;stroke:#000000;stroke-width:4.0252;stroke-linejoin:round;stroke-miterlimit:18.1;stroke-dasharray:none;stroke-opacity:1"
       d="m 326.22791,396.92596 21.74619,-8.60815 -13.94157,-13.48275 -23.9054,8.64007 z"
       id="path28" />
    <path
       style="opacity:1;fill:#444444;fill-opacity:1;stroke:#000000;stroke-width:4.0252;stroke-linejoin:round;stroke-miterlimit:18.1;stroke-dasharray:none;stroke-opacity:1"
       d="m 310.95858,383.74164 22.85532,-8.07353 -14.12509,-13.57132 -22.31192,9.78351 z"
       id="path29" />
    <path
       style="opacity:1;fill:#444444;fill-opacity:1;stroke:#000000;stroke-width:4.0252;stroke-linejoin:round;stroke-miterlimit:18.1;stroke-dasharray:none;stroke-opacity:1"
       d="m 365.8846,405.75753 24.20782,-9.16352 -17.25141,-16.2061 -23.12183,8.85311 z"
       id="path30" />
    <path
       style="opacity:1;fill:#444444;fill-opacity:1;stroke:#000000;stroke-width:4.0252;stroke-linejoin:round;stroke-miterlimit:18.1;stroke-dasharray:none;stroke-opacity:1"
       d="m 348.61484,387.9356 24.13202,-8.75258 -14.88792,-12.66247 -22.54811,9.19224 z"
       id="path31" />
    <path
       style="opacity:1;fill:#444444;fill-opacity:1;stroke:#000000;stroke-width:4.0252;stroke-linejoin:round;stroke-miterlimit:18.1;stroke-dasharray:none;stroke-opacity:1"
       d="m 335.46882,374.8574 21.79646,-9.15074 -12.37441,-12.40952 -23.46495,9.0103 z"
       id="path32" />
    <path
       style="opacity:1;fill:#444444;fill-opacity:1;stroke:#000000;stroke-width:4.0252;stroke-linejoin:round;stroke-miterlimit:18.1;stroke-dasharray:none;stroke-opacity:1"
       d="m 390.0597,396.20542 17.31923,-6.10741 -15.80713,-17.9528 -19.48164,7.59716 z"
       id="path33" />
    <path
       style="opacity:1;fill:#444444;fill-opacity:1;stroke:#000000;stroke-width:4.0252;stroke-linejoin:round;stroke-miterlimit:18.1;stroke-dasharray:none;stroke-opacity:1"
       d="m 373.4642,378.5726 17.13571,-7.24368 c 0,0 -11.27326,-13.00478 -12.27627,-13.1907 -1.00301,-0.18592 -20.16786,8.45893 -20.16786,8.45893 z"
       id="path34" />
    <path
       style="opacity:1;fill:#444444;fill-opacity:1;stroke:#000000;stroke-width:4.0252;stroke-linejoin:round;stroke-miterlimit:18.1;stroke-dasharray:none;stroke-opacity:1"
       d="m 357.87011,365.62846 19.35238,-7.5812 -13.27848,-11.81586 -17.45887,7.38012 z"
       id="path35" />
    <path
       style="opacity:1;fill:#444444;fill-opacity:1;stroke:#000000;stroke-width:4.0252;stroke-linejoin:round;stroke-miterlimit:18.1;stroke-dasharray:none;stroke-opacity:1"
       d="m 426.98585,409.4815 22.05898,-8.75497 -16.98011,-19.62128 -25.78295,9.5553 z"
       id="path36" />
    <path
       style="opacity:1;fill:#444444;fill-opacity:1;stroke:#000000;stroke-width:4.0252;stroke-linejoin:round;stroke-miterlimit:18.1;stroke-dasharray:none;stroke-opacity:1"
       d="m 407.50421,389.53945 23.87907,-9.21538 -17.66154,-16.30665 -21.24987,7.78229 z"
       id="path37" />
    <path
       style="opacity:1;fill:#444444;fill-opacity:1;stroke:#000000;stroke-width:4.0252;stroke-linejoin:round;stroke-miterlimit:18.1;stroke-dasharray:none;stroke-opacity:1"
       d="m 392.17743,371.08874 20.53093,-7.32027 -11.2956,-12.70716 -21.26344,7.19181 z"
       id="path38" />
    <path
       style="opacity:1;fill:#444444;fill-opacity:1;stroke:#000000;stroke-width:4.0252;stroke-linejoin:round;stroke-miterlimit:18.1;stroke-dasharray:none;stroke-opacity:1"
       d="m 379.33303,357.82463 20.49502,-7.81579 -14.05726,-12.15578 -19.97476,7.39608 z"
       id="path39" />
    <path
       style="opacity:1;fill:#444444;fill-opacity:1;stroke:#000000;stroke-width:4.0252;stroke-linejoin:round;stroke-miterlimit:18.1;stroke-dasharray:none;stroke-opacity:1"
       d="m 450.28083,400.98347 18.05254,-7.64344 -16.65774,-19.63645 -19.59335,6.60613 z"
       id="path40" />
    <path
       style="opacity:1;fill:#444444;fill-opacity:1;stroke:#000000;stroke-width:4.0252;stroke-linejoin:round;stroke-miterlimit:18.1;stroke-dasharray:none;stroke-opacity:1"
       d="m 432.48045,379.79025 18.99809,-6.36993 -14.49214,-17.15566 -22.46672,7.55168 z"
       id="path41" />
    <path
       style="opacity:1;fill:#444444;fill-opacity:1;stroke:#000000;stroke-width:4.0252;stroke-linejoin:round;stroke-miterlimit:18.1;stroke-dasharray:none;stroke-opacity:1"
       d="m 414.9753,363.65755 21.95524,-7.96261 -13.77798,-12.55236 -21.42302,6.98834 z"
       id="path42" />
    <path
       style="opacity:1;fill:#444444;fill-opacity:1;stroke:#000000;stroke-width:4.0252;stroke-linejoin:round;stroke-miterlimit:18.1;stroke-dasharray:none;stroke-opacity:1"
       d="m 401.86519,349.18058 20.97857,-7.80942 -14.30223,-12.06242 -21.59458,7.72244 z"
       id="path43" />
    <path
       style="opacity:1;fill:#444444;fill-opacity:1;stroke:#000000;stroke-width:4.0252;stroke-linejoin:round;stroke-miterlimit:18.1;stroke-dasharray:none;stroke-opacity:1"
       d="m 468.31661,392.71604 16.8676,-5.92389 -17.41977,-19.55345 -14.89909,5.15627 z"
       id="path44" />
    <path
       style="opacity:1;fill:#444444;fill-opacity:1;stroke:#000000;stroke-width:4.0252;stroke-linejoin:round;stroke-miterlimit:18.1;stroke-dasharray:none;stroke-opacity:1"
       d="m 452.8071,373.36366 15.58931,-6.74416 -15.48238,-17.46047 -14.98926,6.26142 z"
       id="path45" />
    <path
       style="opacity:1;fill:#444444;fill-opacity:1;stroke:#000000;stroke-width:4.0252;stroke-linejoin:round;stroke-miterlimit:18.1;stroke-dasharray:none;stroke-opacity:1"
       d="m 437.46277,355.18745 14.85759,-6.81199 -11.84937,-13.6942 -16.47581,7.28277 z"
       id="path46" />
    <path
       style="opacity:1;fill:#444444;fill-opacity:1;stroke:#000000;stroke-width:4.0252;stroke-linejoin:round;stroke-miterlimit:18.1;stroke-dasharray:none;stroke-opacity:1"
       d="m 423.755,341.79726 16.37926,-7.87883 -11.38576,-13.10213 -19.59735,7.6195 z"
       id="path47" />
    <path
       style="opacity:1;fill:#464646;fill-opacity:1;stroke:#000000;stroke-width:4.0252;stroke-linejoin:round;stroke-miterlimit:18.1;stroke-dasharray:none;stroke-opacity:1"
       d="m 341.14287,455.51393 24.76505,29.87694 68.25566,-28.70561 -25.90253,-25.91381 z"
       id="path48" />
    <path
       style="opacity:1;fill:#727272;fill-opacity:1;stroke:#000000;stroke-width:4.0252;stroke-linejoin:round;stroke-miterlimit:18.1;stroke-dasharray:none;stroke-opacity:1"
       d="m 177.11534,404.05418 -2.72183,-9.57606 -6.40736,-5.07128 -4.32424,-0.73123 256.52238,-96.51214 3.80966,1.71976 3.37634,5.65355 -3.09422,12.75379 z"
       id="path50" />
    <path
       style="opacity:1;fill:#727272;fill-opacity:1;stroke:#000000;stroke-width:4.0252;stroke-linejoin:round;stroke-miterlimit:18.1;stroke-dasharray:none;stroke-opacity:1"
       d="m 158.69672,387.65774 0.28888,14.15307 -0.27083,8.69812 5.64453,5.91987 120.37443,136.82728 260.07926,-102.59902 1.62046,-15.60877 L 286.75366,539.2136 174.71625,402.99794 v -7.69831 l -8.64621,-5.34436 z"
       id="path51" />
    <path
       style="opacity:1;fill:#727272;fill-opacity:1;stroke:#000000;stroke-width:4.0252;stroke-linejoin:round;stroke-miterlimit:18.1;stroke-dasharray:none;stroke-opacity:1"
       d="m 158.35592,386.25169 -36.6612,-171.0578 261.86222,-85.46232 36.03153,160.51578 -257.27393,98.88641 z"
       id="path52" />
    <path
       style="opacity:1;fill:#add0df;fill-opacity:0.6826809;stroke:#000000;stroke-width:4.0252;stroke-linejoin:round;stroke-miterlimit:18.1;stroke-dasharray:none;stroke-opacity:1"
       d="M 173.79769,366.4383 145.65856,232.18389 377.12927,153.94593 405.467,285.0023 Z"
       id="path53" />
    <path
       style="opacity:0.616987;fill:#000000;fill-opacity:1;stroke:#000000;stroke-width:1.5;stroke-linejoin:round;stroke-miterlimit:18.1;stroke-dasharray:none;stroke-opacity:1"
       d="m 159.81977,235.62098 81.95562,-29.02401 27.74001,118.08347 -84.16775,30.74602 z"
       id="path402" />
    <path
       style="opacity:0.616987;fill:#000000;fill-opacity:1;stroke:#000000;stroke-width:1.5;stroke-linejoin:round;stroke-miterlimit:18.1;stroke-dasharray:none;stroke-opacity:1"
       d="m 281.13552,316.84769 -10.67084,-44.34057 65.9295,-17.63426 9.96629,40.51795 z"
       id="path404" />
    <path
       style="opacity:0.616987;fill:#000000;fill-opacity:1;stroke:#000000;stroke-width:1.5;stroke-linejoin:round;stroke-miterlimit:18.1;stroke-dasharray:none;stroke-opacity:1"
       d="m 340.4547,253.487 45.70701,-14.5364 11.7416,41.37752 -45.61015,14.02356 z"
       id="path405" />
    <path
       style="opacity:0.616987;fill:#000000;fill-opacity:1;stroke:#000000;stroke-width:1.5;stroke-linejoin:round;stroke-miterlimit:18.1;stroke-dasharray:none;stroke-opacity:1"
       d="m 248.22322,202.60051 16.72172,70.33736 120.98155,-41.96073 -16.44766,-65.02456 z"
       id="path403" />
    <ellipse
       style="opacity:1;fill:#101233;fill-opacity:1;stroke:#000000;stroke-width:4;stroke-linejoin:round;stroke-miterlimit:18.1;stroke-dasharray:48.00001303, 4;stroke-opacity:1;stroke-dashoffset:0"
       id="path401"
       cx="280.43552"
       cy="256.82965"
       rx="55.854488"
       ry="58.691692" />
    <path
       style="opacity:1;fill:#ff7400;fill-opacity:1;stroke:#000000;stroke-width:2.5;stroke-linejoin:round;stroke-miterlimit:18.1;stroke-dasharray:none;stroke-opacity:1"
       d="m 249.92427,240.10367 1.02911,5.35514 9.83166,-2.77416 7.3339,34.7932 -0.21648,3.34803 -1.59717,3.77984 -2.04198,2.11091 -3.29042,0.87891 -3.06176,-0.17187 -2.71871,-1.50513 -1.5747,-2.48485 -0.46761,-1.74847 -6.87762,1.9816 0.65477,2.80136 0.87538,1.60341 0.60054,1.54001 1.41612,1.70338 1.42085,1.15201 1.44833,0.96656 3.33644,1.02185 3.92799,-0.21271 3.26467,-0.63982 3.38615,-1.28816 3.05627,-1.92163 2.38594,-2.44444 1.95915,-3.23828 1.08316,-2.84392 0.17377,-3.08129 -0.45086,-4.45837 -0.63232,-3.02557 -7.5078,-36.79221 z"
       id="path398" />
    <path
       style="opacity:1;fill:#ff7400;fill-opacity:1;stroke:#000000;stroke-width:2.5;stroke-linejoin:round;stroke-miterlimit:18.1;stroke-dasharray:none;stroke-opacity:1"
       d="m 297.17085,278.70516 6.87775,-2.16251 -4.63964,-21.52618 13.18143,-4.92486 4.28983,-4.46887 1.40638,-4.1593 0.57806,-3.5321 -0.48436,-4.98135 -1.11317,-4.20528 -3.01319,-5.11339 -3.87013,-2.38565 -3.22405,-1.10087 -3.79018,0.29017 -3.74654,0.80353 -13.4251,4.01799 z"
       id="path399" />
    <path
       style="opacity:1;fill:#101233;fill-opacity:1;stroke:#000000;stroke-width:1.5;stroke-linejoin:round;stroke-miterlimit:18.1;stroke-dasharray:none;stroke-opacity:1"
       d="m 294.37251,229.65494 4.02239,19.32611 9.07192,-3.00189 1.58025,-1.88373 2.22399,-3.06221 0.48268,-4.02812 -0.91341,-3.58355 -1.74539,-3.93195 -2.33622,-2.27684 -2.51585,-0.5635 -3.22896,0.50192 z"
       id="path400" />
  </g>
</svg>
